<?xml version="1.0" encoding="utf-8"?>
<!-- Generator: Adobe Illustrator 23.0.1, SVG Export Plug-In . SVG Version: 6.00 Build 0)  -->
<svg version="1.1" id="Capa_1" xmlns="http://www.w3.org/2000/svg" xmlns:xlink="http://www.w3.org/1999/xlink" x="0px" y="0px"
	 viewBox="0 0 23 40" style="enable-background:new 0 0 23 40;" xml:space="preserve">
<style type="text/css">
	.st0{fill:#FFFFFF;}
	.st1{clip-path:url(#SVGID_2_);}
</style>
<g>
	<g>
		<path class="st0" d="M22.5,39c-0.3,0-0.5-0.2-0.5-0.5v-38C22,0.2,22.2,0,22.5,0S23,0.2,23,0.5v38C23,38.8,22.8,39,22.5,39z"/>
	</g>
	<g>
		<defs>
			<rect id="SVGID_1_" y="2" width="23" height="38"/>
		</defs>
		<clipPath id="SVGID_2_">
			<use xlink:href="#SVGID_1_"  style="overflow:visible;"/>
		</clipPath>
		<g class="st1">
			<g>
				<path class="st0" d="M16.2,2.2l-15,9C0.8,11.4,1,12,1.5,12h30.1c0.5,0,0.7-0.6,0.3-0.8l-15-9C16.6,2.1,16.4,2.1,16.2,2.2z"/>
			</g>
			<g>
				<path class="st0" d="M31.2,17H1.8C1.3,17,1,16.7,1,16.2v-2.5C1,13.3,1.3,13,1.8,13h29.5c0.4,0,0.8,0.3,0.8,0.8v2.5
					C32,16.7,31.7,17,31.2,17z"/>
			</g>
			<g>
				<path class="st0" d="M31.4,35H1.6C1.3,35,1,34.7,1,34.4v-2.7C1,31.3,1.3,31,1.6,31h29.7c0.3,0,0.6,0.3,0.6,0.6v2.7
					C32,34.7,31.7,35,31.4,35z"/>
			</g>
			<g>
				<path class="st0" d="M32.4,37H0.6C0.3,37,0,36.7,0,36.4v-2.7C0,33.3,0.3,33,0.6,33h31.7c0.4,0,0.6,0.3,0.6,0.6v2.7
					C33,36.7,32.7,37,32.4,37z"/>
			</g>
			<g>
				<path class="st0" d="M3,16v16h5V16H3z M4.7,29.7c0,0.2-0.1,0.3-0.3,0.3C4.1,30,4,29.9,4,29.7V18.3C4,18.1,4.1,18,4.3,18
					c0.2,0,0.3,0.1,0.3,0.3V29.7z M7,29.7C7,29.9,6.9,30,6.7,30s-0.3-0.1-0.3-0.3V18.3c0-0.2,0.1-0.3,0.3-0.3S7,18.1,7,18.3V29.7z"
					/>
			</g>
			<g>
				<path class="st0" d="M14,16v16h5V16H14z M15.7,29.7c0,0.2-0.1,0.3-0.3,0.3c-0.2,0-0.3-0.1-0.3-0.3V18.3c0-0.2,0.1-0.3,0.3-0.3
					c0.2,0,0.3,0.1,0.3,0.3V29.7z M18,29.7c0,0.2-0.1,0.3-0.3,0.3s-0.3-0.1-0.3-0.3V18.3c0-0.2,0.1-0.3,0.3-0.3s0.3,0.1,0.3,0.3
					V29.7z"/>
			</g>
			<g>
				<path class="st0" d="M26,16v16h5V16H26z M27.7,29.7c0,0.2-0.1,0.3-0.3,0.3c-0.2,0-0.3-0.1-0.3-0.3V18.3c0-0.2,0.1-0.3,0.3-0.3
					c0.2,0,0.3,0.1,0.3,0.3V29.7z M30,29.7c0,0.2-0.1,0.3-0.3,0.3s-0.3-0.1-0.3-0.3V18.3c0-0.2,0.1-0.3,0.3-0.3s0.3,0.1,0.3,0.3
					V29.7z"/>
			</g>
		</g>
	</g>
</g>
</svg>
