<?xml version="1.0" encoding="utf-8"?>
<!-- Generator: Adobe Illustrator 23.1.0, SVG Export Plug-In . SVG Version: 6.00 Build 0)  -->
<svg version="1.1" id="Capa_1" xmlns="http://www.w3.org/2000/svg" xmlns:xlink="http://www.w3.org/1999/xlink" x="0px" y="0px"
	 viewBox="0 0 53 57" style="enable-background:new 0 0 53 57;" xml:space="preserve">
<style type="text/css">
	.st0{fill:#3A79F0;}
	.st1{opacity:0.35;}
	.st2{fill:none;}
	.st3{opacity:0.35;fill:#3A79F0;}
</style>
<g>
	<g>
		<g>
			<path class="st0" d="M50.2,43.1H5.6c-1.5,0-2.8-1.2-2.8-2.8c0-1.5,1.2-2.8,2.8-2.8h44.7c1.5,0,2.8,1.2,2.8,2.8
				C53,41.8,51.8,43.1,50.2,43.1z"/>
		</g>
		<g>
			<path class="st0" d="M16.7,57c-0.7,0-1.4-0.3-2-0.8l-14-14c-1.1-1.1-1.1-2.9,0-3.9l14-14c1.1-1.1,2.9-1.1,3.9,0s1.1,2.9,0,3.9
				l-12,12l12,12c1.1,1.1,1.1,2.9,0,3.9C18.2,56.8,17.5,57,16.7,57z"/>
		</g>
	</g>
	<g>
		<g>
			<path class="st0" d="M2.8,14h44.7c1.5,0,2.8,1.2,2.8,2.8s-1.2,2.8-2.8,2.8H2.8c-1.5,0-2.8-1.2-2.8-2.8S1.2,14,2.8,14z"/>
		</g>
		<g>
			<path class="st0" d="M36.3,0c0.7,0,1.4,0.3,2,0.8l14,14c1.1,1.1,1.1,2.9,0,3.9l-14,14c-1.1,1.1-2.9,1.1-3.9,0
				c-1.1-1.1-1.1-2.9,0-3.9l12-12l-12-12c-1.1-1.1-1.1-2.9,0-3.9C34.9,0.3,35.6,0,36.3,0z"/>
		</g>
	</g>
</g>
</svg>
