<?xml version="1.0" encoding="utf-8"?>
<!-- Generator: Adobe Illustrator 23.0.1, SVG Export Plug-In . SVG Version: 6.00 Build 0)  -->
<svg version="1.1" id="Capa_1" xmlns="http://www.w3.org/2000/svg" xmlns:xlink="http://www.w3.org/1999/xlink" x="0px" y="0px"
	 viewBox="0 0 18 24" style="enable-background:new 0 0 18 24;" xml:space="preserve">
<style type="text/css">
	.st0{fill:#FFFFFF;}
</style>
<path class="st0" d="M8.9,0C4.2,0,0.2,3.9,0,8.6c0,0.1,0,0.1,0,0.2c0,1.5,0.5,2.9,1.3,4.1L9,24l7.7-11.1C17.5,11.8,18,10.4,18,9
	c0,0,0,0,0,0C18,4,13.9,0,8.9,0z M9,13c-2.2,0-4-1.8-4-4c0-2.2,1.8-4,4-4c2.2,0,4,1.8,4,4C13,11.2,11.2,13,9,13z"/>
</svg>
