<?xml version="1.0" encoding="utf-8"?>
<!-- Generator: Adobe Illustrator 23.1.0, SVG Export Plug-In . SVG Version: 6.00 Build 0)  -->
<svg version="1.1" id="Capa_1" xmlns="http://www.w3.org/2000/svg" xmlns:xlink="http://www.w3.org/1999/xlink" x="0px" y="0px"
	 viewBox="0 0 37.3 57.1" style="enable-background:new 0 0 37.3 57.1;" xml:space="preserve">
<style type="text/css">
	.st0{fill:#3A79F0;}
	.st1{opacity:0.35;}
	.st2{fill:none;}
	.st3{opacity:0.35;fill:#3A79F0;}
</style>
<g>
	<g>
		<path class="st2" d="M18.3,34.3c-0.2,0-0.4,0-0.6,0l1,3.7l1.1-3.8C19.3,34.2,18.8,34.3,18.3,34.3z"/>
		<path class="st2" d="M14.2,33.1c-1.3-0.4-3.7-1.2-5.3-2.3L3.7,48.4l6.5-1.9l4.4,5.1l2.7-9.1l-2.6-9.3
			C14.6,33.2,14.4,33.1,14.2,33.1z"/>
		<path class="st2" d="M22.6,52.1l4.5-5l6.5,2l-4.9-17.8c-1.6,1.1-4,1.9-5.3,2.2c-0.3,0.1-0.5,0.1-0.8,0.2L20,42.6L22.6,52.1z"/>
		<path class="st0" d="M18.7,37.9l1.3,4.6l2.6-8.9c-1,0.2-1.9,0.4-2.8,0.5L18.7,37.9z"/>
		<path class="st0" d="M14.7,51.7l-4.4-5.1l-6.5,1.9l5.2-17.7c1.6,1.1,3.9,1.9,5.3,2.3c0.2,0.1,0.4,0.1,0.6,0.2l-0.2-0.9l2.4-0.7
			c0-0.1-0.1-0.2-0.1-0.2c0.3,0.2,1.7,0.4,4-0.1l-0.3-0.1c0-0.1,0.1-0.1,0.1-0.2c-0.4,0.3-2.5,0.4-5.8-0.6c-3.4-1-5.1-2.2-5.2-2.7
			c0,0,0,0.1,0,0.2l-2.4-0.7L0,52.2l9.4-2.7l6.4,7.4l2.8-9.6l-1.3-4.6L14.7,51.7z"/>
		<path class="st0" d="M30.4,28L28,28.6c0-0.1,0-0.2,0-0.2c-0.2,0.4-1.9,1.6-5.3,2.6c-0.7,0.2-1.3,0.3-1.8,0.4l2.2,0.6l-0.5,1.6
			c0.3-0.1,0.5-0.1,0.8-0.2c1.3-0.4,3.7-1.1,5.3-2.2L33.6,49l-6.5-2l-4.5,5L20,42.6l-1.4,4.6l2.7,10l6.6-7.2l9.3,2.9L30.4,28z"/>
		<path class="st0" d="M16.9,31.5c0,0,0.1,0.1,0.1,0.2l-2.4,0.7l0.2,0.9c1.4,0.4,3.4,0.8,5.1,0.7l-0.1,0.2c0.9-0.1,1.8-0.3,2.8-0.5
			l0.5-1.6l-2.2-0.6C18.6,31.9,17.2,31.7,16.9,31.5z"/>
		<polygon class="st0" points="18.7,37.9 17.4,42.5 18.6,47.2 20,42.6 		"/>
	</g>
	<g>
		<g>
			<path class="st0" d="M14.1,32.4C5.3,29.9,0.2,20.6,2.8,11.8S14.6-2,23.4,0.6s13.8,11.8,11.2,20.6C32.1,30,22.8,35,14.1,32.4z
				 M22.7,3.2C15.3,1,7.6,5.3,5.4,12.6s2.1,15.1,9.4,17.3c7.4,2.2,15.1-2.1,17.3-9.4S30,5.4,22.7,3.2z"/>
		</g>
		<g class="st1">
			<path class="st0" d="M33.3,16c0.7,8.4-5.6,15.7-14,16.4c-4.4,0.3-8.5-1.2-11.5-4C5,25.9,24,2.7,26.8,4.7
				C30.4,7.2,32.9,11.3,33.3,16z"/>
		</g>
	</g>
	<polygon class="st3" points="26.9,31.5 20.8,51.4 18.2,44.8 21.7,33.4 	"/>
</g>
</svg>
