<?xml version="1.0" encoding="utf-8"?>
<!-- Generator: Adobe Illustrator 23.1.0, SVG Export Plug-In . SVG Version: 6.00 Build 0)  -->
<svg version="1.1" id="Capa_1" xmlns="http://www.w3.org/2000/svg" xmlns:xlink="http://www.w3.org/1999/xlink" x="0px" y="0px"
	 viewBox="0 0 44.8 57.6" style="enable-background:new 0 0 44.8 57.6;" xml:space="preserve">
<style type="text/css">
	.st0{fill:#3A79F0;}
	.st1{opacity:0.35;}
	.st2{fill:none;}
	.st3{opacity:0.35;fill:#3A79F0;}
</style>
<g>
	<g>
		<path class="st0" d="M22.7,26.9c-7.4,0-13.4-6-13.4-13.4S15.3,0,22.7,0s13.4,6,13.4,13.4S30.1,26.9,22.7,26.9z M22.7,2.6
			c-6,0-10.8,4.9-10.8,10.8s4.9,10.8,10.8,10.8s10.8-4.9,10.8-10.8S28.7,2.6,22.7,2.6z"/>
	</g>
	<g>
		<path class="st0" d="M44.8,57.6H0.6V45.7c0-8.2,6.7-14.9,14.9-14.9h14.3c8.2,0,14.9,6.7,14.9,14.9V57.6z M3.2,55h39v-9.3
			c0-6.8-5.5-12.3-12.3-12.3H15.6c-6.8,0-12.3,5.5-12.3,12.3V55z"/>
	</g>
	<g>
		<path class="st0" d="M35.1,57.6c-0.7,0-1.3-0.6-1.3-1.3V45c0-0.7,0.6-1.3,1.3-1.3c0.7,0,1.3,0.6,1.3,1.3v11.3
			C36.4,57,35.8,57.6,35.1,57.6z"/>
	</g>
	<g>
		<path class="st0" d="M10.8,57.6c-0.7,0-1.3-0.6-1.3-1.3V45.5c0-0.7,0.6-1.3,1.3-1.3c0.7,0,1.3,0.6,1.3,1.3v10.8
			C12.1,57,11.5,57.6,10.8,57.6z"/>
	</g>
	<g class="st1">
		<polygon class="st0" points="28.6,55.9 33.8,44.6 33.8,55.9 		"/>
	</g>
	<g class="st1">
		<polygon class="st0" points="4.3,55.9 9.5,44.6 9.5,55.9 		"/>
	</g>
	<g class="st1">
		<g>
			<path class="st0" d="M33.8,13.6c0,6.3-5.1,11.3-11.3,11.3c-3.3,0-6.2-1.4-8.3-3.6c-1.9-2,13.6-18.1,15.5-16.5
				C32.2,7,33.8,10.1,33.8,13.6z"/>
		</g>
	</g>
	<g>
		<polygon class="st0" points="16.8,32 22.7,41.1 27.7,32.7 		"/>
	</g>
	<g>
		<path class="st0" d="M0,5.4h27.4c4.2,0,7.6,3.4,7.6,7.6v0H7.6C3.4,13,0,9.6,0,5.4L0,5.4z"/>
	</g>
	<g>
		<path class="st0" d="M24.3,0.1h-2.8c-5.8,0-10.4,4.7-10.4,10.4v0h23.6v0C34.7,4.8,30.1,0.1,24.3,0.1z"/>
	</g>
</g>
</svg>
