<?xml version="1.0" encoding="utf-8"?>
<!-- Generator: Adobe Illustrator 23.0.1, SVG Export Plug-In . SVG Version: 6.00 Build 0)  -->
<svg version="1.1" id="Capa_1" xmlns="http://www.w3.org/2000/svg" xmlns:xlink="http://www.w3.org/1999/xlink" x="0px" y="0px"
	 viewBox="0 0 17 39" style="enable-background:new 0 0 17 39;" xml:space="preserve">
<style type="text/css">
	.st0{clip-path:url(#SVGID_2_);}
	.st1{fill:#FFFFFF;}
</style>
<g>
	<g>
		<defs>
			<rect id="SVGID_1_" y="1" width="17" height="36"/>
		</defs>
		<clipPath id="SVGID_2_">
			<use xlink:href="#SVGID_1_"  style="overflow:visible;"/>
		</clipPath>
		<g class="st0">
			<g>
				<path class="st1" d="M20,1H2C1.4,1,1,1.4,1,2V36c0,0.5,0.4,1,1,1H20c0.5,0,1-0.4,1-1V2C21,1.4,20.6,1,20,1z M19.5,35.5h-17v-33
					h17V35.5z"/>
			</g>
			<g>
				<path class="st1" d="M18.5,3.5h-15v31h15V3.5z M7.5,8h0.8c0-0.3,0.1-0.5,0.2-0.7c0.1-0.2,0.3-0.4,0.4-0.5l0.5,0.5
					C9.3,7.4,9.2,7.6,9.1,7.7C9,7.8,9,8,9,8.2c0,0.2,0.1,0.4,0.2,0.5c0.1,0.1,0.3,0.2,0.5,0.2c0.2,0,0.3-0.1,0.4-0.2
					c0.1-0.1,0.2-0.2,0.3-0.4c0.1-0.2,0.2-0.3,0.3-0.5c0.1-0.2,0.2-0.4,0.3-0.5C11,7.1,11.2,7,11.4,6.9s0.4-0.2,0.7-0.2
					c0.4,0,0.7,0.1,1,0.3c0.3,0.2,0.4,0.5,0.5,0.9h0.8v0.6h-0.8c0,0.2-0.1,0.5-0.2,0.7c-0.1,0.3-0.2,0.5-0.4,0.6l-0.6-0.4
					c0.2-0.2,0.3-0.4,0.4-0.6c0.1-0.2,0.1-0.4,0.1-0.6c0-0.3-0.1-0.5-0.2-0.6c-0.1-0.1-0.3-0.2-0.5-0.2c-0.2,0-0.3,0.1-0.4,0.2
					c-0.1,0.1-0.2,0.2-0.3,0.4c-0.1,0.2-0.2,0.3-0.3,0.5c-0.1,0.2-0.2,0.4-0.3,0.5c-0.1,0.2-0.3,0.3-0.4,0.4
					c-0.2,0.1-0.4,0.2-0.6,0.2C9.3,9.8,9,9.7,8.7,9.5C8.5,9.3,8.3,9,8.3,8.6H7.5V8z M14.4,29.6h-0.8c0,0.2-0.1,0.5-0.2,0.7
					c-0.1,0.3-0.2,0.5-0.4,0.6l-0.6-0.4c0.2-0.2,0.3-0.4,0.4-0.6c0.1-0.2,0.1-0.4,0.1-0.6c0-0.3-0.1-0.5-0.2-0.6
					c-0.1-0.1-0.3-0.2-0.5-0.2c-0.2,0-0.3,0.1-0.4,0.2c-0.1,0.1-0.2,0.2-0.3,0.4c-0.1,0.2-0.2,0.3-0.3,0.5c-0.1,0.2-0.2,0.4-0.3,0.5
					c-0.1,0.2-0.3,0.3-0.4,0.4c-0.2,0.1-0.4,0.2-0.6,0.2c-0.4,0-0.7-0.1-0.9-0.3c-0.3-0.2-0.4-0.5-0.5-0.9H7.5V29h0.8
					c0-0.3,0.1-0.5,0.2-0.7c0.1-0.2,0.3-0.4,0.4-0.5l0.5,0.5c-0.1,0.2-0.2,0.3-0.3,0.4C9,28.8,9,29,9,29.2c0,0.2,0.1,0.4,0.2,0.5
					c0.1,0.1,0.3,0.2,0.5,0.2c0.2,0,0.3-0.1,0.4-0.2c0.1-0.1,0.2-0.2,0.3-0.4c0.1-0.2,0.2-0.3,0.3-0.5c0.1-0.2,0.2-0.4,0.3-0.5
					c0.1-0.2,0.3-0.3,0.5-0.4s0.4-0.2,0.7-0.2c0.4,0,0.7,0.1,1,0.3c0.3,0.2,0.4,0.5,0.5,0.9h0.8V29.6z M11,24c-2.8,0-5-2.2-5-5
					s2.2-5,5-5s5,2.2,5,5S13.8,24,11,24z"/>
			</g>
		</g>
	</g>
	<g>
		<path class="st1" d="M16.5,39c-0.3,0-0.5-0.2-0.5-0.5v-38C16,0.2,16.2,0,16.5,0S17,0.2,17,0.5v38C17,38.8,16.8,39,16.5,39z"/>
	</g>
</g>
</svg>
