<?xml version="1.0" encoding="utf-8"?>
<!-- Generator: Adobe Illustrator 23.1.0, SVG Export Plug-In . SVG Version: 6.00 Build 0)  -->
<svg version="1.1" id="Capa_1" xmlns="http://www.w3.org/2000/svg" xmlns:xlink="http://www.w3.org/1999/xlink" x="0px" y="0px"
	 viewBox="0 0 34.9 58" style="enable-background:new 0 0 34.9 58;" xml:space="preserve">
<style type="text/css">
	.st0{fill:#3A79F0;}
	.st1{opacity:0.35;}
	.st2{fill:none;}
	.st3{opacity:0.35;fill:#3A79F0;}
</style>
<g>
	<g>
		<path class="st0" d="M31.5,46.2c-2.3,2.3-5.3,3.9-9.2,4.6v3c0,1.3-0.4,2.3-1.2,3.1C20.3,57.6,19.2,58,18,58
			c-1.3,0-2.3-0.4-3.1-1.2c-0.8-0.8-1.2-1.8-1.2-3.1V51C9.1,50.4,5.3,49.1,2,47c-0.7-0.4-1.3-1-1.6-1.5S0,44.2,0,43.2
			C0,42,0.4,40.9,1.1,40c0.7-0.9,1.6-1.3,2.5-1.3c0.5,0,1,0.1,1.5,0.2c0.5,0.2,1.1,0.5,1.9,0.9c1.8,1,3.5,1.7,5,2.1
			c1.6,0.4,3.2,0.6,5,0.6c2.2,0,3.8-0.4,4.9-1.1c1.1-0.7,1.7-1.8,1.7-3.2c0-0.9-0.3-1.6-1-2.1c-0.7-0.6-1.5-1-2.5-1.3
			c-1-0.3-2.5-0.7-4.4-1.2c-3.1-0.8-5.6-1.6-7.5-2.4c-2-0.8-3.7-2-5.1-3.7c-1.4-1.7-2.2-4-2.2-6.8c0-3.3,1.1-6.1,3.4-8.5
			c2.3-2.4,5.3-4,9.1-4.8V4.2c0-1.2,0.4-2.2,1.2-3C15.5,0.4,16.5,0,17.7,0C19,0,20,0.4,20.8,1.2C21.6,1.9,22,3,22,4.2v2.9
			c3.4,0.5,6.7,1.8,9.9,3.9c0.7,0.5,1.3,1,1.6,1.6c0.3,0.6,0.5,1.3,0.5,2.2c0,1.2-0.4,2.3-1.1,3.2c-0.7,0.9-1.6,1.3-2.6,1.3
			c-0.5,0-1-0.1-1.4-0.2c-0.4-0.2-1.1-0.5-2-0.9c-0.3-0.2-0.9-0.5-1.9-1c-1-0.5-2-0.9-3.2-1.2c-1.1-0.3-2.3-0.5-3.6-0.5
			c-1.8,0-3.3,0.4-4.5,1.2c-1.1,0.8-1.7,1.9-1.7,3.2c0,1.3,0.7,2.3,2,2.9c1.3,0.7,3.4,1.3,6.2,2c3,0.7,5.5,1.4,7.5,2.2
			c1.9,0.8,3.6,2,5,3.7c1.4,1.7,2.1,4,2.1,6.9C34.9,41,33.7,43.8,31.5,46.2z"/>
	</g>
</g>
</svg>
