<?xml version="1.0" encoding="utf-8"?>
<!-- Generator: Adobe Illustrator 23.1.0, SVG Export Plug-In . SVG Version: 6.00 Build 0)  -->
<svg version="1.1" id="Capa_1" xmlns="http://www.w3.org/2000/svg" xmlns:xlink="http://www.w3.org/1999/xlink" x="0px" y="0px"
	 viewBox="0 0 55.3 55.3" style="enable-background:new 0 0 55.3 55.3;" xml:space="preserve">
<style type="text/css">
	.st0{fill:#3A79F0;}
	.st1{opacity:0.35;}
	.st2{fill:none;}
	.st3{opacity:0.35;fill:#3A79F0;}
</style>
<g>
	<g>
		<path class="st0" d="M27.7,55.3C12.4,55.3,0,42.9,0,27.7S12.4,0,27.7,0s27.7,12.4,27.7,27.7S42.9,55.3,27.7,55.3z M27.7,4.5
			C14.9,4.5,4.5,14.9,4.5,27.7s10.4,23.2,23.2,23.2s23.2-10.4,23.2-23.2S40.4,4.5,27.7,4.5z"/>
	</g>
	<g class="st1">
		<path class="st0" d="M53.1,27.7c0,14-11.4,25.4-25.4,25.4c-7.3,0-14-3.1-18.6-8.1C4.8,40.4,39.4,4.4,43.8,8
			C49.5,12.7,53.1,19.8,53.1,27.7z"/>
	</g>
	<g>
		<g>
			<path class="st0" d="M35.5,37.3c-1.2,1.3-2.9,2.1-5,2.5v1.6c0,0.7-0.2,1.3-0.7,1.7c-0.4,0.4-1,0.6-1.7,0.6
				c-0.7,0-1.3-0.2-1.7-0.6c-0.4-0.4-0.7-1-0.7-1.7v-1.5c-2.5-0.3-4.6-1-6.4-2.2c-0.4-0.2-0.7-0.5-0.9-0.8c-0.2-0.3-0.3-0.7-0.3-1.2
				c0-0.7,0.2-1.3,0.6-1.7c0.4-0.5,0.9-0.7,1.4-0.7c0.3,0,0.5,0,0.8,0.1c0.3,0.1,0.6,0.3,1,0.5c1,0.5,1.9,0.9,2.8,1.1
				c0.9,0.2,1.8,0.3,2.7,0.3c1.2,0,2.1-0.2,2.7-0.6c0.6-0.4,0.9-1,0.9-1.8c0-0.5-0.2-0.9-0.6-1.2c-0.4-0.3-0.8-0.5-1.4-0.7
				c-0.5-0.2-1.4-0.4-2.4-0.7c-1.7-0.4-3.1-0.9-4.1-1.3c-1.1-0.4-2-1.1-2.8-2.1c-0.8-0.9-1.2-2.2-1.2-3.7c0-1.8,0.6-3.3,1.9-4.7
				c1.3-1.3,2.9-2.2,5-2.6v-1.7c0-0.7,0.2-1.2,0.7-1.7c0.4-0.4,1-0.7,1.7-0.7c0.7,0,1.3,0.2,1.7,0.6c0.4,0.4,0.7,1,0.7,1.7v1.6
				c1.9,0.3,3.7,1,5.4,2.1c0.4,0.3,0.7,0.6,0.9,0.9c0.2,0.3,0.3,0.7,0.3,1.2c0,0.7-0.2,1.3-0.6,1.7c-0.4,0.5-0.9,0.7-1.4,0.7
				c-0.3,0-0.5,0-0.8-0.1c-0.2-0.1-0.6-0.3-1.1-0.5c-0.2-0.1-0.5-0.3-1-0.6c-0.5-0.3-1.1-0.5-1.7-0.7c-0.6-0.2-1.3-0.3-2-0.3
				c-1,0-1.8,0.2-2.5,0.7c-0.6,0.4-0.9,1-0.9,1.8c0,0.7,0.4,1.3,1.1,1.6c0.7,0.4,1.8,0.7,3.4,1.1c1.7,0.4,3,0.8,4.1,1.2
				c1.1,0.4,2,1.1,2.8,2.1c0.8,0.9,1.2,2.2,1.2,3.8C37.4,34.4,36.7,36,35.5,37.3z"/>
		</g>
	</g>
</g>
</svg>
