<?xml version="1.0" encoding="utf-8"?>
<!-- Generator: Adobe Illustrator 23.1.0, SVG Export Plug-In . SVG Version: 6.00 Build 0)  -->
<svg version="1.1" id="Capa_1" xmlns="http://www.w3.org/2000/svg" xmlns:xlink="http://www.w3.org/1999/xlink" x="0px" y="0px"
	 viewBox="0 0 56.8 56" style="enable-background:new 0 0 56.8 56;" xml:space="preserve">
<style type="text/css">
	.st0{fill:#3A79F0;}
	.st1{opacity:0.35;}
	.st2{fill:none;}
	.st3{opacity:0.35;fill:#3A79F0;}
</style>
<g>
	<g class="st1">
		<path class="st0" d="M47.1,31.2C47,55.5,41.9,54.4,24.5,53.8C18,53.6,5.6,52.3,5.6,52.3L42.9,9.6C42.9,9.6,47.2,14.9,47.1,31.2z"
			/>
	</g>
	<g>
		<g>
			<path class="st0" d="M31.4,39.6c-1.1,1.1-2.6,1.9-4.5,2.2v1.5c0,0.6-0.2,1.1-0.6,1.5c-0.4,0.4-0.9,0.6-1.5,0.6
				c-0.6,0-1.1-0.2-1.5-0.6c-0.4-0.4-0.6-0.9-0.6-1.5v-1.3C20.5,41.6,18.6,41,17,40c-0.4-0.2-0.6-0.5-0.8-0.7S16,38.6,16,38.1
				c0-0.6,0.2-1.1,0.5-1.6c0.3-0.4,0.8-0.7,1.2-0.7c0.2,0,0.5,0,0.7,0.1c0.2,0.1,0.5,0.2,0.9,0.4c0.9,0.5,1.7,0.8,2.5,1
				c0.8,0.2,1.6,0.3,2.4,0.3c1.1,0,1.9-0.2,2.4-0.5c0.5-0.3,0.8-0.9,0.8-1.6c0-0.4-0.2-0.8-0.5-1c-0.3-0.3-0.7-0.5-1.2-0.6
				c-0.5-0.2-1.2-0.4-2.1-0.6C22.2,33,21,32.7,20,32.3c-1-0.4-1.8-1-2.5-1.8c-0.7-0.8-1-1.9-1-3.3c0-1.6,0.6-3,1.7-4.2
				c1.1-1.2,2.6-2,4.4-2.3v-1.5c0-0.6,0.2-1.1,0.6-1.5c0.4-0.4,0.9-0.6,1.5-0.6c0.6,0,1.1,0.2,1.5,0.6c0.4,0.4,0.6,0.9,0.6,1.5v1.4
				c1.7,0.3,3.3,0.9,4.8,1.9c0.4,0.2,0.6,0.5,0.8,0.8c0.1,0.3,0.2,0.6,0.2,1.1c0,0.6-0.2,1.1-0.5,1.6c-0.4,0.4-0.8,0.7-1.3,0.7
				c-0.2,0-0.5,0-0.7-0.1c-0.2-0.1-0.5-0.2-1-0.4c-0.1-0.1-0.4-0.2-0.9-0.5s-1-0.4-1.5-0.6c-0.5-0.1-1.1-0.2-1.7-0.2
				c-0.9,0-1.6,0.2-2.2,0.6c-0.6,0.4-0.8,0.9-0.8,1.6c0,0.6,0.3,1.1,1,1.4c0.6,0.3,1.6,0.6,3,1c1.5,0.3,2.7,0.7,3.6,1.1
				c0.9,0.4,1.8,1,2.5,1.8c0.7,0.8,1,2,1,3.4C33,37,32.5,38.4,31.4,39.6z"/>
		</g>
	</g>
	<g>
		<path class="st0" d="M37.8,56H11.3C5.1,56,0,50.9,0,44.7v-27C0,11.5,5.1,6.4,11.3,6.4h26.4c6.2,0,11.3,5.1,11.3,11.3v27
			C49.1,50.9,44,56,37.8,56z M11.3,10.7c-3.9,0-7,3.2-7,7v27c0,3.9,3.2,7,7,7h26.4c3.9,0,7-3.2,7-7v-27c0-3.9-3.2-7-7-7H11.3z"/>
	</g>
	<circle class="st0" cx="45.1" cy="11.7" r="11.7"/>
</g>
</svg>
