<?xml version="1.0" encoding="utf-8"?>
<!-- Generator: Adobe Illustrator 23.0.1, SVG Export Plug-In . SVG Version: 6.00 Build 0)  -->
<svg version="1.1" id="Capa_1" xmlns="http://www.w3.org/2000/svg" xmlns:xlink="http://www.w3.org/1999/xlink" x="0px" y="0px"
	 viewBox="0 0 15 39" style="enable-background:new 0 0 15 39;" xml:space="preserve">
<style type="text/css">
	.st0{fill:#FF6567;}
	.st1{clip-path:url(#SVGID_2_);}
	.st2{opacity:0.2;}
	.st3{fill:#FFFFFF;}
</style>
<g>
	<g>
		<path class="st0" d="M14.5,39c-0.3,0-0.5-0.2-0.5-0.5v-38C14,0.2,14.2,0,14.5,0S15,0.2,15,0.5v38C15,38.8,14.8,39,14.5,39z"/>
	</g>
	<g>
		<defs>
			<rect id="SVGID_1_" y="2" width="15" height="36"/>
		</defs>
		<clipPath id="SVGID_2_">
			<use xlink:href="#SVGID_1_"  style="overflow:visible;"/>
		</clipPath>
		<g class="st1">
			<g>
				<g>
					<path class="st0" d="M9,17.5c-3.6,0-6.5-2.9-6.5-6.5S5.4,4.5,9,4.5s6.5,2.9,6.5,6.5S12.6,17.5,9,17.5z M9,5.5
						C6,5.5,3.5,8,3.5,11S6,16.5,9,16.5s5.5-2.5,5.5-5.5S12,5.5,9,5.5z"/>
				</g>
			</g>
			<g>
				<g>
					<path class="st0" d="M16.5,8.5c0,0-5,0-7-1c0,0-4,4-8,3c0,0,0-7,8-7S16.5,8.5,16.5,8.5z"/>
				</g>
			</g>
			<g>
				<g>
					<path class="st0" d="M17,36H2V24.1C2,21.8,3.8,20,6,20h6.9c2.2,0,4.1,1.8,4.1,4.1V36z"/>
				</g>
			</g>
			<g>
				<g>
					<g>
						<path class="st0" d="M5.6,21c-0.2,0-0.3-0.1-0.4-0.2c-0.1-0.2-0.1-0.5,0.2-0.7c2-1.3,1.4-3.2,1.4-3.2c-0.1-0.3,0-0.5,0.3-0.7
							c0.2-0.1,0.5,0,0.7,0.2c0.2,0.5,0.7,2.9-1.8,4.4C5.8,21,5.7,21,5.6,21z"/>
					</g>
				</g>
				<g>
					<g>
						<path class="st0" d="M13.3,21c-0.1,0-0.2,0-0.3-0.1c-2.4-1.6-2-3.9-1.8-4.4c0.1-0.2,0.4-0.4,0.7-0.2c0.2,0.1,0.4,0.4,0.2,0.7
							c0,0-0.6,1.9,1.4,3.2c0.2,0.1,0.3,0.5,0.2,0.7C13.7,20.9,13.5,21,13.3,21z"/>
					</g>
				</g>
				<g class="st2">
					<g>
						<polygon class="st0" points="7.3,16.7 11.8,20 11.4,16.5 						"/>
					</g>
				</g>
			</g>
			<g>
				<g>
					<polygon class="st3" points="7,20 12,20 9.5,25 					"/>
				</g>
			</g>
		</g>
	</g>
</g>
</svg>
