<?xml version="1.0" encoding="utf-8"?>
<!-- Generator: Adobe Illustrator 23.0.1, SVG Export Plug-In . SVG Version: 6.00 Build 0)  -->
<svg version="1.1" id="Capa_1" xmlns="http://www.w3.org/2000/svg" xmlns:xlink="http://www.w3.org/1999/xlink" x="0px" y="0px"
	 viewBox="0 0 33.3 24.3" style="enable-background:new 0 0 33.3 24.3;" xml:space="preserve">
<style type="text/css">
	.st0{fill:#3A79F0;}
	.st1{fill:#FFFFFF;}
</style>
<g>
	<g>
		<path class="st0" d="M30.1,19.8h-27c-1.7,0-3.1-1.4-3.1-3.1V3.1C0,1.4,1.4,0,3.1,0h27c1.7,0,3.1,1.4,3.1,3.1v13.5
			C33.3,18.4,31.9,19.8,30.1,19.8z M3.1,1C2,1,1,2,1,3.1v13.5c0,1.2,1,2.1,2.1,2.1h27c1.2,0,2.1-1,2.1-2.1V3.1c0-1.2-1-2.1-2.1-2.1
			H3.1z"/>
	</g>
	<g>
		<path class="st0" d="M30.4,19.3H2.8c-1.3,0-2.3-1.1-2.3-2.3v-1.7h32.3V17C32.8,18.3,31.7,19.3,30.4,19.3z"/>
	</g>
	<g>
		<path class="st0" d="M16.6,24.3c-0.6,0-1-0.4-1-1v-4c0-0.6,0.4-1,1-1s1,0.4,1,1v4C17.6,23.9,17.2,24.3,16.6,24.3z"/>
	</g>
	<g>
		<path class="st0" d="M22.1,24.3h-11c-0.6,0-1-0.4-1-1s0.4-1,1-1h11c0.6,0,1,0.4,1,1S22.7,24.3,22.1,24.3z"/>
	</g>
	<g>
		<circle class="st1" cx="16.6" cy="17.3" r="1"/>
	</g>
</g>
</svg>
