<?xml version="1.0" encoding="utf-8"?>
<!-- Generator: Adobe Illustrator 23.1.0, SVG Export Plug-In . SVG Version: 6.00 Build 0)  -->
<svg version="1.1" id="Capa_1" xmlns="http://www.w3.org/2000/svg" xmlns:xlink="http://www.w3.org/1999/xlink" x="0px" y="0px"
	 viewBox="0 0 51 66.5" style="enable-background:new 0 0 51 66.5;" xml:space="preserve">
<style type="text/css">
	.st0{fill:#3A79F0;}
	.st1{opacity:0.35;}
</style>
<g>
	<g>
		<path class="st0" d="M25.5,31C17,31,10,24,10,15.5S17,0,25.5,0S41,7,41,15.5S34,31,25.5,31z M25.5,3C18.6,3,13,8.6,13,15.5
			S18.6,28,25.5,28S38,22.4,38,15.5S32.4,3,25.5,3z"/>
	</g>
	<g>
		<path class="st0" d="M51,66.5H0V52.7c0-9.5,7.7-17.2,17.2-17.2h16.5c9.5,0,17.2,7.7,17.2,17.2V66.5z M3,63.5h45V52.7
			c0-7.9-6.4-14.2-14.2-14.2H17.2C9.4,38.5,3,44.9,3,52.7V63.5z"/>
	</g>
	<g>
		<path class="st0" d="M39.8,66.5c-0.8,0-1.5-0.7-1.5-1.5V52c0-0.8,0.7-1.5,1.5-1.5s1.5,0.7,1.5,1.5v13
			C41.3,65.8,40.6,66.5,39.8,66.5z"/>
	</g>
	<g>
		<path class="st0" d="M11.8,66.5c-0.8,0-1.5-0.7-1.5-1.5V52.5c0-0.8,0.7-1.5,1.5-1.5s1.5,0.7,1.5,1.5V65
			C13.3,65.8,12.6,66.5,11.8,66.5z"/>
	</g>
	<g class="st1">
		<polygon class="st0" points="32.3,64.5 38.3,51.5 38.3,64.5 		"/>
	</g>
	<g class="st1">
		<polygon class="st0" points="4.3,64.5 10.3,51.5 10.3,64.5 		"/>
	</g>
	<g class="st1">
		<g>
			<path class="st0" d="M38.2,15.7c0,7.2-5.9,13.1-13.1,13.1c-3.8,0-7.2-1.6-9.6-4.2c-2.2-2.3,15.7-20.9,17.9-19
				C36.4,8,38.2,11.7,38.2,15.7z"/>
		</g>
	</g>
	<g>
		<polygon class="st0" points="20.6,37 25.3,43.5 29.3,37.5 		"/>
	</g>
	<g>
		<polygon class="st0" points="29.5,55.5 25.3,59.5 21,55.5 25.3,41.5 		"/>
	</g>
</g>
</svg>
