<?xml version="1.0" encoding="utf-8"?>
<!-- Generator: Adobe Illustrator 23.0.1, SVG Export Plug-In . SVG Version: 6.00 Build 0)  -->
<svg version="1.1" id="Capa_1" xmlns="http://www.w3.org/2000/svg" xmlns:xlink="http://www.w3.org/1999/xlink" x="0px" y="0px"
	 viewBox="0 0 17.7 39" style="enable-background:new 0 0 17.7 39;" xml:space="preserve">
<style type="text/css">
	.st0{fill:#3A79F0;}
	.st1{fill:none;}
	.st2{fill:#FFFFFF;}
	.st3{opacity:0.2;}
</style>
<g>
	<g>
		<path class="st0" d="M17.2,39c-0.3,0-0.5-0.2-0.5-0.5v-38c0-0.3,0.2-0.5,0.5-0.5s0.5,0.2,0.5,0.5v38C17.7,38.8,17.5,39,17.2,39z"
			/>
	</g>
	<g>
		<g>
			<path class="st1" d="M2.7,33.8v-26h3V7.5C5.6,7.2,5.8,7,6.1,7h1.3V5.4H2.8C1.8,5.4,1,6.2,1,7.2v26.3c0,1,0.8,1.8,1.8,1.8h14.4
				v-1.5H2.7z"/>
		</g>
		<g>
			<path class="st1" d="M15.1,7h1.3c0.3,0,0.5,0.2,0.5,0.5v0.3h0.4V5.4h-2.1V7z"/>
		</g>
		<g>
			<rect x="15.1" y="4.4" class="st0" width="2.1" height="1"/>
		</g>
		<g>
			<path class="st0" d="M2.8,35.3c-1,0-1.8-0.8-1.8-1.8V7.2c0-1,0.8-1.8,1.8-1.8h4.6v-1H2.8C1.2,4.4,0,5.6,0,7.2v26.3
				c0,1.5,1.2,2.8,2.8,2.8h14.4v-1H2.8z"/>
		</g>
		<g>
			<path class="st0" d="M6.1,7C5.8,7,5.6,7.2,5.6,7.5v0.3h11.1V7.5c0-0.3-0.2-0.5-0.5-0.5h-1.3H7.4H6.1z"/>
		</g>
		<g>
			<path class="st0" d="M15.1,3.5c0-0.4-0.3-0.8-0.8-0.8H8.1c-0.4,0-0.8,0.3-0.8,0.8v0.9h7.7V3.5z"/>
		</g>
		<g>
			<path class="st0" d="M15.1,7V5.4h-1.3v0.3c0,0.3-0.2,0.5-0.5,0.5H9.2c-0.3,0-0.5-0.2-0.5-0.5V5.4H7.4V7H15.1z"/>
		</g>
		<g>
			<path class="st0" d="M8.6,5.4V5c0-0.3,0.2-0.5,0.5-0.5h4.1c0.3,0,0.5,0.2,0.5,0.5v0.4h1.3v-1H7.4v1H8.6z"/>
		</g>
		<g>
			<path class="st2" d="M9.2,6.2h4.1c0.3,0,0.5-0.2,0.5-0.5V5.4H8.6v0.3C8.6,5.9,8.9,6.2,9.2,6.2z"/>
		</g>
		<g>
			<path class="st2" d="M13.8,5c0-0.3-0.2-0.5-0.5-0.5H9.2C8.9,4.5,8.6,4.7,8.6,5v0.4h5.1V5z"/>
		</g>
		<g class="st3">
			<path class="st0" d="M16.3,8.8H6.1c-0.3,0-0.5-0.2-0.5-0.5V7.8h-3v26h14.5v-26h-0.4v0.5C16.8,8.5,16.6,8.8,16.3,8.8z"/>
		</g>
		<g>
			<path class="st0" d="M5.6,8.3c0,0.3,0.2,0.5,0.5,0.5h10.2c0.3,0,0.5-0.2,0.5-0.5V7.8H5.6V8.3z"/>
		</g>
	</g>
</g>
</svg>
