<?xml version="1.0" encoding="utf-8"?>
<!-- Generator: Adobe Illustrator 23.0.1, SVG Export Plug-In . SVG Version: 6.00 Build 0)  -->
<svg version="1.1" id="Capa_1" xmlns="http://www.w3.org/2000/svg" xmlns:xlink="http://www.w3.org/1999/xlink" x="0px" y="0px"
	 viewBox="0 0 13.1 39" style="enable-background:new 0 0 13.1 39;" xml:space="preserve">
<style type="text/css">
	.st0{fill:#3A79F0;}
</style>
<g>
	<g>
		<path class="st0" d="M12.6,18.8c-0.4-0.3-0.9-0.5-1.4-0.8c-0.9-0.4-1.7-0.8-2.4-1.2c-0.7-0.4-1.4-0.8-1.8-1.2
			c-0.5-0.4-0.7-0.9-0.7-1.5c0-0.9,0.2-1.5,0.7-1.8c0.5-0.4,1.2-0.6,2.1-0.6c0.8,0,1.5,0.2,2.2,0.5c0.5,0.2,0.9,0.5,1.4,0.9V8
			c-0.7-0.3-1.5-0.5-2.3-0.6V3.5H6.6v3.9C4.9,7.8,3.5,8.5,2.4,9.8c-1,1.2-1.5,2.8-1.5,4.6c0,1.1,0.2,2.1,0.7,2.9
			c0.5,0.8,1.1,1.5,1.8,2c0.7,0.6,1.5,1.1,2.4,1.5c0.9,0.4,1.7,0.8,2.4,1.2c0.7,0.4,1.4,0.8,1.8,1.3c0.5,0.5,0.7,1,0.7,1.7
			c0,0.9-0.2,1.5-0.7,2c-0.5,0.4-1.3,0.6-2.3,0.6c-0.9,0-1.8-0.2-2.7-0.5c-0.9-0.4-1.8-0.9-2.7-1.6L0,29.1c0.9,0.8,1.9,1.5,3.1,1.9
			c1.2,0.5,2.4,0.8,3.5,0.9v3.8h3.7v-3.9c0.9-0.2,1.6-0.5,2.3-0.8V18.8z"/>
	</g>
	<g>
		<path class="st0" d="M12.6,39c-0.3,0-0.5-0.2-0.5-0.5v-38c0-0.3,0.2-0.5,0.5-0.5s0.5,0.2,0.5,0.5v38C13.1,38.8,12.9,39,12.6,39z"
			/>
	</g>
</g>
</svg>
