<?xml version="1.0" encoding="utf-8"?>
<!-- Generator: Adobe Illustrator 23.0.1, SVG Export Plug-In . SVG Version: 6.00 Build 0)  -->
<svg version="1.1" id="Capa_1" xmlns="http://www.w3.org/2000/svg" xmlns:xlink="http://www.w3.org/1999/xlink" x="0px" y="0px"
	 viewBox="0 0 17 39" style="enable-background:new 0 0 17 39;" xml:space="preserve">
<style type="text/css">
	.st0{clip-path:url(#SVGID_2_);}
	.st1{fill:#3A79F0;}
	.st2{fill:#FFFFFF;}
</style>
<g>
	<g>
		<defs>
			<rect id="SVGID_1_" y="4" width="17" height="32"/>
		</defs>
		<clipPath id="SVGID_2_">
			<use xlink:href="#SVGID_1_"  style="overflow:visible;"/>
		</clipPath>
		<g class="st0">
			<g>
				<path class="st1" d="M18,36H4c-1.6,0-3-1.3-3-3V7c0-1.6,1.3-3,3-3H18c1.6,0,3,1.3,3,3V33C21,34.7,19.7,36,18,36z"/>
			</g>
			<g>
				<rect x="5" y="4" class="st2" width="4" height="32"/>
			</g>
			<g>
				<path class="st2" d="M16.6,33h-3.1c-0.8,0-1.4-0.6-1.4-1.4v-3.1c0-0.8,0.6-1.4,1.4-1.4h3.1c0.8,0,1.4,0.6,1.4,1.4v3.1
					C18,32.4,17.4,33,16.6,33z"/>
			</g>
		</g>
	</g>
	<g>
		<path class="st1" d="M16.5,39c-0.3,0-0.5-0.2-0.5-0.5v-38C16,0.2,16.2,0,16.5,0S17,0.2,17,0.5v38C17,38.8,16.8,39,16.5,39z"/>
	</g>
</g>
</svg>
