<?xml version="1.0" encoding="utf-8"?>
<!-- Generator: Adobe Illustrator 23.1.0, SVG Export Plug-In . SVG Version: 6.00 Build 0)  -->
<svg version="1.1" id="Capa_1" xmlns="http://www.w3.org/2000/svg" xmlns:xlink="http://www.w3.org/1999/xlink" x="0px" y="0px"
	 viewBox="0 0 45.8 57" style="enable-background:new 0 0 45.8 57;" xml:space="preserve">
<style type="text/css">
	.st0{fill:#3A79F0;}
	.st1{opacity:0.35;}
	.st2{fill:none;}
	.st3{opacity:0.35;fill:#3A79F0;}
</style>
<g>
	<g>
		<path class="st0" d="M41.7,57H4.1c-1.1,0-2.3-0.5-3-1.3c-0.8-0.9-1.2-2-1-3.1l3.5-36.1c0.2-2.1,2-3.7,4.1-3.7h30.6
			c2.1,0,3.9,1.6,4.1,3.7l3.5,36.1c0.1,1.1-0.3,2.3-1,3.1C43.9,56.5,42.8,57,41.7,57z M7.6,16.7c-0.1,0-0.1,0.1-0.2,0.1L3.9,52.9
			c0,0,0,0.1,0,0.1c0,0,0.1,0,0.1,0h37.6c0,0,0.1,0,0.1,0c0,0,0-0.1,0-0.1l-3.5-36.1c0-0.1-0.1-0.1-0.2-0.1H7.6z"/>
	</g>
	<g>
		<rect x="15" y="32.9" transform="matrix(0.2143 -0.9768 0.9768 0.2143 -6.0652 62.2354)" class="st0" width="41.3" height="3.9"/>
	</g>
	<g>
		<path class="st0" d="M32.2,16.7H13.5V9.3c0-5.1,4.2-9.3,9.3-9.3s9.3,4.2,9.3,9.3V16.7z M17.5,12.8h10.8V9.3c0-3-2.4-5.4-5.4-5.4
			s-5.4,2.4-5.4,5.4V12.8z"/>
	</g>
	<g class="st1">
		<polygon class="st0" points="39.1,21.6 32.2,55 43,55 		"/>
	</g>
</g>
</svg>
