<?xml version="1.0" encoding="utf-8"?>
<!-- Generator: Adobe Illustrator 23.0.1, SVG Export Plug-In . SVG Version: 6.00 Build 0)  -->
<svg version="1.1" id="Capa_1" xmlns="http://www.w3.org/2000/svg" xmlns:xlink="http://www.w3.org/1999/xlink" x="0px" y="0px"
	 viewBox="0 0 26.3 26.3" style="enable-background:new 0 0 26.3 26.3;" xml:space="preserve">
<style type="text/css">
	.st0{fill:#3A79F0;}
</style>
<g>
	<g>
		<path class="st0" d="M14.7,26.3h-3.2c-1.1,0-2.1-0.9-2.1-2.1v-1.8c-0.1,0-0.2-0.1-0.3-0.1l-1.3,1.3c-0.8,0.8-2.1,0.8-2.9,0
			l-2.2-2.2c-0.4-0.4-0.6-0.9-0.6-1.5s0.2-1.1,0.6-1.5L4,17.1c0-0.1-0.1-0.2-0.1-0.3H2.1c-1.1,0-2.1-0.9-2.1-2.1v-3.2
			c0-1.1,0.9-2.1,2.1-2.1h1.8c0-0.1,0.1-0.2,0.1-0.3L2.7,7.9C2.3,7.5,2.1,7,2.1,6.4c0-0.6,0.2-1.1,0.6-1.5L5,2.7
			c0.8-0.8,2.1-0.8,2.9,0L9.2,4c0.1,0,0.2-0.1,0.3-0.1V2.1c0-1.1,0.9-2.1,2.1-2.1h3.2c1.1,0,2.1,0.9,2.1,2.1v1.8
			c0.1,0,0.2,0.1,0.3,0.1l1.3-1.3c0.8-0.8,2.1-0.8,2.9,0L23.5,5c0.4,0.4,0.6,0.9,0.6,1.5c0,0.6-0.2,1.1-0.6,1.5l-1.3,1.3
			c0,0.1,0.1,0.2,0.1,0.3h1.8c1.1,0,2.1,0.9,2.1,2.1v3.2c0,1.1-0.9,2.1-2.1,2.1h-1.8c0,0.1-0.1,0.2-0.1,0.3l1.3,1.3
			c0.4,0.4,0.6,0.9,0.6,1.5s-0.2,1.1-0.6,1.5l-2.2,2.2c-0.8,0.8-2.1,0.8-2.9,0l-1.3-1.3c-0.1,0-0.2,0.1-0.3,0.1v1.8
			C16.8,25.3,15.9,26.3,14.7,26.3z M8.9,21.1l0.3,0.2c0.3,0.1,0.6,0.3,0.9,0.4l0.3,0.1v2.5c0,0.6,0.5,1.1,1.1,1.1h3.2
			c0.6,0,1.1-0.5,1.1-1.1v-2.5l0.3-0.1c0.3-0.1,0.6-0.2,0.9-0.4l0.3-0.2l1.8,1.8c0.4,0.4,1.1,0.4,1.5,0l2.2-2.2
			c0.2-0.2,0.3-0.5,0.3-0.8s-0.1-0.6-0.3-0.8l-1.8-1.8l0.2-0.3c0.1-0.3,0.3-0.6,0.4-0.9l0.1-0.3h2.5c0.6,0,1.1-0.5,1.1-1.1v-3.2
			c0-0.6-0.5-1.1-1.1-1.1h-2.5l-0.1-0.3c-0.1-0.3-0.2-0.6-0.4-0.9l-0.2-0.3l1.8-1.8C23,7,23.1,6.7,23.1,6.4S23,5.9,22.8,5.7
			l-2.2-2.2c-0.4-0.4-1.1-0.4-1.5,0l-1.8,1.8L17,5c-0.3-0.1-0.6-0.3-0.9-0.4l-0.3-0.1V2.1c0-0.6-0.5-1.1-1.1-1.1h-3.2
			c-0.6,0-1.1,0.5-1.1,1.1v2.5l-0.3,0.1C9.8,4.8,9.5,4.9,9.3,5L8.9,5.2L7.2,3.4C6.8,3,6.1,3,5.7,3.4L3.4,5.7
			C3.2,5.9,3.1,6.1,3.1,6.4S3.2,7,3.4,7.2l1.8,1.8L5,9.3c-0.1,0.3-0.3,0.6-0.4,0.9l-0.1,0.3H2.1c-0.6,0-1.1,0.5-1.1,1.1v3.2
			c0,0.6,0.5,1.1,1.1,1.1h2.5l0.1,0.3C4.8,16.4,4.9,16.7,5,17l0.2,0.3l-1.8,1.8c-0.2,0.2-0.3,0.5-0.3,0.8s0.1,0.6,0.3,0.8l2.2,2.2
			c0.4,0.4,1.1,0.4,1.5,0L8.9,21.1z"/>
	</g>
	<g>
		<g>
			<path class="st0" d="M13.1,8.8c2.4,0,4.4,2,4.4,4.4s-2,4.4-4.4,4.4s-4.4-2-4.4-4.4S10.7,8.8,13.1,8.8 M13.1,7.8
				c-3,0-5.4,2.4-5.4,5.4s2.4,5.4,5.4,5.4s5.4-2.4,5.4-5.4S16.1,7.8,13.1,7.8L13.1,7.8z"/>
		</g>
	</g>
</g>
</svg>
