<?xml version="1.0" encoding="utf-8"?>
<!-- Generator: Adobe Illustrator 23.0.1, SVG Export Plug-In . SVG Version: 6.00 Build 0)  -->
<svg version="1.1" id="Capa_1" xmlns="http://www.w3.org/2000/svg" xmlns:xlink="http://www.w3.org/1999/xlink" x="0px" y="0px"
	 viewBox="0 0 26.5 24" style="enable-background:new 0 0 26.5 24;" xml:space="preserve">
<style type="text/css">
	.st0{fill:#3A79F0;}
</style>
<g>
	<g>
		<path class="st0" d="M24.4,24H12.6c-1.2,0-2.1-0.9-2.1-2.1V17c0-0.3,0.2-0.5,0.5-0.5s0.5,0.2,0.5,0.5v4.9c0,0.6,0.5,1.1,1.1,1.1
			h11.8c0.6,0,1.1-0.5,1.1-1.1V2.1C25.5,1.5,25,1,24.4,1H12.6c-0.6,0-1.1,0.5-1.1,1.1V7c0,0.3-0.2,0.5-0.5,0.5S10.5,7.3,10.5,7V2.1
			c0-1.2,0.9-2.1,2.1-2.1h11.8c1.2,0,2.1,0.9,2.1,2.1v19.8C26.5,23.1,25.6,24,24.4,24z"/>
	</g>
	<g>
		<path class="st0" d="M18,13H2c-0.6,0-1-0.4-1-1s0.4-1,1-1h16c0.6,0,1,0.4,1,1S18.6,13,18,13z"/>
	</g>
	<g>
		<path class="st0" d="M6,18c-0.3,0-0.5-0.1-0.7-0.3l-5-5c-0.4-0.4-0.4-1,0-1.4l5-5c0.4-0.4,1-0.4,1.4,0s0.4,1,0,1.4L2.4,12l4.3,4.3
			c0.4,0.4,0.4,1,0,1.4C6.5,17.9,6.3,18,6,18z"/>
	</g>
</g>
</svg>
