<?xml version="1.0" encoding="utf-8"?>
<!-- Generator: Adobe Illustrator 23.0.1, SVG Export Plug-In . SVG Version: 6.00 Build 0)  -->
<svg version="1.1" id="Capa_1" xmlns="http://www.w3.org/2000/svg" xmlns:xlink="http://www.w3.org/1999/xlink" x="0px" y="0px"
	 viewBox="0 0 24 19.5" style="enable-background:new 0 0 24 19.5;" xml:space="preserve">
<style type="text/css">
	.st0{fill:#FFFFFF;}
	.st1{fill:#3A79F0;}
</style>
<g>
	<path class="st0" d="M10.3,14.4c0,0.2-0.1,0.4-0.2,0.5c-0.2,0.1-0.3,0.2-0.6,0.2c-0.2,0-0.4-0.1-0.6-0.2s-0.2-0.3-0.2-0.5V8.7
		L8,9.1C7.8,9.2,7.7,9.2,7.6,9.2C7.4,9.2,7.2,9.2,7.1,9C6.9,8.9,6.8,8.7,6.8,8.5c0-0.1,0-0.2,0.1-0.4C7,8,7.1,7.9,7.2,7.9L9,6.8
		c0.1-0.1,0.3-0.1,0.5-0.1c0.2,0,0.4,0.1,0.5,0.2c0.1,0.1,0.2,0.3,0.2,0.5V14.4z M17,14.9c-0.1,0.1-0.3,0.2-0.5,0.2h-4.1
		c-0.2,0-0.4-0.1-0.5-0.2s-0.2-0.3-0.2-0.5c0-0.2,0.1-0.4,0.2-0.5l2.6-2.8c0.3-0.3,0.5-0.6,0.7-1c0.2-0.3,0.3-0.6,0.3-0.9
		c0-0.4-0.1-0.7-0.4-0.9C15,8,14.7,7.9,14.3,7.9c-0.2,0-0.5,0.1-0.7,0.2c-0.2,0.2-0.4,0.4-0.6,0.6C12.8,8.9,12.7,9,12.4,9
		c-0.2,0-0.3-0.1-0.5-0.2c-0.1-0.1-0.2-0.3-0.2-0.5c0-0.1,0-0.2,0.1-0.4c0.1-0.1,0.2-0.3,0.4-0.4c0.3-0.3,0.7-0.5,1.1-0.7
		c0.4-0.2,0.8-0.3,1.2-0.3c0.5,0,1,0.1,1.4,0.3c0.4,0.2,0.7,0.5,0.9,0.9C16.9,8.2,17,8.7,17,9.2c0,0.5-0.1,1-0.4,1.5
		c-0.3,0.5-0.6,1-1,1.5l-1.5,1.6h2.5c0.2,0,0.4,0.1,0.5,0.2s0.2,0.3,0.2,0.5C17.2,14.6,17.2,14.8,17,14.9z"/>
	<path class="st1" d="M21.8,2.5L21.8,2.5l-0.1,1h0.1C22.5,3.5,23,4,23,4.7v12.7c0,0.6-0.5,1.2-1.2,1.2H2.2C1.5,18.5,1,18,1,17.3V4.7
		C1,4,1.5,3.5,2.2,3.5h0.1v-1H2.2C1,2.5,0,3.5,0,4.7v12.7c0,1.2,1,2.2,2.2,2.2h19.7c1.2,0,2.2-1,2.2-2.2V4.7C24,3.5,23,2.5,21.8,2.5
		z"/>
	<rect x="5.9" y="2.5" class="st1" width="12.3" height="1"/>
	<path class="st1" d="M5.1,0.9C5.1,0.4,4.7,0,4.2,0H3.9C3.4,0,3,0.4,3,0.9v1.6h2.1V0.9z"/>
	<path class="st1" d="M3,5.1C3,5.6,3.4,6,3.9,6h0.3c0.5,0,0.9-0.4,0.9-0.9V3.5H3V5.1z"/>
	<rect x="3" y="2.5" class="st1" width="2.1" height="1"/>
	<rect x="2.3" y="2.5" class="st1" width="0.4" height="1"/>
	<path class="st1" d="M18.9,5.1c0,0.5,0.4,0.9,0.9,0.9h0.3C20.6,6,21,5.6,21,5.1V3.5h-2.1V5.1z"/>
	<path class="st1" d="M21,0.9C21,0.4,20.6,0,20.1,0h-0.3c-0.5,0-0.9,0.4-0.9,0.9v1.6H21V0.9z"/>
	<rect x="18.9" y="2.5" class="st1" width="2.1" height="1"/>
	<path class="st1" d="M9.5,6.7c-0.2,0-0.4,0-0.5,0.1L7.2,7.9C7.1,7.9,7,8,6.9,8.1C6.9,8.3,6.8,8.4,6.8,8.5c0,0.2,0.1,0.4,0.2,0.5
		c0.1,0.2,0.3,0.2,0.5,0.2c0.1,0,0.3,0,0.4-0.1l0.7-0.5v5.7c0,0.2,0.1,0.4,0.2,0.5s0.3,0.2,0.6,0.2c0.2,0,0.4-0.1,0.6-0.2
		c0.2-0.1,0.2-0.3,0.2-0.5V7.4c0-0.2-0.1-0.4-0.2-0.5C9.9,6.8,9.7,6.7,9.5,6.7z"/>
	<path class="st1" d="M16.6,13.8h-2.5l1.5-1.6c0.4-0.5,0.8-1,1-1.5c0.3-0.5,0.4-1,0.4-1.5c0-0.5-0.1-0.9-0.3-1.3
		c-0.2-0.4-0.5-0.7-0.9-0.9c-0.4-0.2-0.9-0.3-1.4-0.3c-0.4,0-0.8,0.1-1.2,0.3c-0.4,0.2-0.8,0.4-1.1,0.7C12,7.7,11.9,7.9,11.8,8
		c-0.1,0.1-0.1,0.2-0.1,0.4c0,0.2,0.1,0.3,0.2,0.5C12.1,9,12.3,9,12.4,9c0.2,0,0.4-0.1,0.6-0.3c0.2-0.3,0.4-0.5,0.6-0.6
		c0.2-0.2,0.5-0.2,0.7-0.2c0.3,0,0.6,0.1,0.9,0.4c0.3,0.3,0.4,0.6,0.4,0.9c0,0.3-0.1,0.6-0.3,0.9c-0.2,0.3-0.4,0.6-0.7,1L12,13.9
		c-0.1,0.2-0.2,0.3-0.2,0.5c0,0.2,0.1,0.4,0.2,0.5s0.3,0.2,0.5,0.2h4.1c0.2,0,0.4-0.1,0.5-0.2s0.2-0.3,0.2-0.5
		c0-0.2-0.1-0.4-0.2-0.5S16.7,13.8,16.6,13.8z"/>
</g>
</svg>
