<?xml version="1.0" encoding="utf-8"?>
<!-- Generator: Adobe Illustrator 23.0.1, SVG Export Plug-In . SVG Version: 6.00 Build 0)  -->
<svg version="1.1" id="Capa_1" xmlns="http://www.w3.org/2000/svg" xmlns:xlink="http://www.w3.org/1999/xlink" x="0px" y="0px"
	 viewBox="0 0 14 24.7" style="enable-background:new 0 0 14 24.7;" xml:space="preserve">
<style type="text/css">
	.st0{fill:#3A79F0;}
</style>
<g>
	<path class="st0" d="M3.2,12.1h4.6c1.8,0,3.2-1.5,3.2-3.2V5l-1,1v2.9c0,1.2-1,2.2-2.2,2.2H3.2C2,11.1,1,10.1,1,8.9V4.2
		C1,3,2,2,3.2,2h4.6c0.6,0,1.1,0.2,1.4,0.5L10,1.8C9.5,1.3,8.7,1,7.9,1H3.2C1.5,1,0,2.5,0,4.2v4.6C0,10.7,1.5,12.1,3.2,12.1z"/>
	<path class="st0" d="M10.1,21.4c0,1.2-1,2.2-2.2,2.2H3.2c-1.2,0-2.2-1-2.2-2.2v-4.6c0-1.2,1-2.2,2.2-2.2h4.6c0.4,0,0.8,0.1,1.1,0.3
		l0.7-0.7c-0.5-0.4-1.2-0.6-1.8-0.6H3.2C1.5,13.6,0,15,0,16.8v4.6c0,1.8,1.5,3.2,3.2,3.2h4.6c1.8,0,3.2-1.5,3.2-3.2V17l-1,1V21.4z"
		/>
	<path class="st0" d="M13.8,1.3c0.3-0.3,0.3-0.8,0-1.1C13.6,0.1,13.4,0,13.3,0s-0.4,0.1-0.5,0.2l-2.2,2.2c0.3,0.5,0.5,1,0.6,1.6
		L13.8,1.3z"/>
	<path class="st0" d="M9.8,3.1L5.8,7.2L4,5.5C3.9,5.3,3.7,5.3,3.5,5.3S3.1,5.3,3,5.5C2.7,5.8,2.7,6.2,3,6.5l2.3,2.3
		C5.4,8.9,5.6,9,5.8,9s0.4-0.1,0.5-0.2l3.8-3.8V4.2C10.1,3.8,10,3.5,9.8,3.1z"/>
	<path class="st0" d="M10.5,2.4L9.8,3.1c0.2,0.3,0.3,0.7,0.3,1.1v0.7l1-1C11,3.4,10.9,2.8,10.5,2.4z"/>
	<path class="st0" d="M13.8,13.3c0.3-0.3,0.3-0.8,0-1.1c-0.1-0.1-0.3-0.2-0.5-0.2s-0.4,0.1-0.5,0.2l-2.4,2.4
		c0.3,0.4,0.6,0.9,0.7,1.4L13.8,13.3z"/>
	<path class="st0" d="M4,17.5c-0.1-0.1-0.3-0.2-0.5-0.2S3.1,17.3,3,17.5c-0.3,0.3-0.3,0.8,0,1.1l2.3,2.3C5.4,20.9,5.6,21,5.8,21
		s0.4-0.1,0.5-0.2l3.8-3.8v-0.1c0-0.6-0.2-1.1-0.5-1.4l-3.8,3.8L4,17.5z"/>
	<path class="st0" d="M10.1,16.9L11,16c-0.1-0.5-0.4-1-0.7-1.4l-0.7,0.7c0.3,0.4,0.5,0.9,0.5,1.4V16.9z"/>
</g>
</svg>
