<?xml version="1.0" encoding="utf-8"?>
<!-- Generator: Adobe Illustrator 23.0.1, SVG Export Plug-In . SVG Version: 6.00 Build 0)  -->
<svg version="1.1" id="Capa_1" xmlns="http://www.w3.org/2000/svg" xmlns:xlink="http://www.w3.org/1999/xlink" x="0px" y="0px"
	 viewBox="0 0 17 24" style="enable-background:new 0 0 17 24;" xml:space="preserve">
<style type="text/css">
	.st0{fill:#3A79F0;}
</style>
<g>
	<path class="st0" d="M14.8,24H2.2C1,24,0,23,0,21.8V2.2C0,1,1,0,2.2,0h12.7C16,0,17,1,17,2.2v19.7C17,23,16,24,14.8,24z M2.2,1
		C1.5,1,1,1.5,1,2.2v19.7C1,22.5,1.5,23,2.2,23h12.7c0.6,0,1.2-0.5,1.2-1.2V2.2C16,1.5,15.5,1,14.8,1H2.2z"/>
</g>
<g>
	<g>
		<path class="st0" d="M13.5,5h-10C3.2,5,3,4.8,3,4.5S3.2,4,3.5,4h10C13.8,4,14,4.2,14,4.5S13.8,5,13.5,5z"/>
	</g>
	<g>
		<path class="st0" d="M13.5,10h-10C3.2,10,3,9.8,3,9.5S3.2,9,3.5,9h10C13.8,9,14,9.2,14,9.5S13.8,10,13.5,10z"/>
	</g>
	<g>
		<path class="st0" d="M13.5,15h-10C3.2,15,3,14.8,3,14.5S3.2,14,3.5,14h10c0.3,0,0.5,0.2,0.5,0.5S13.8,15,13.5,15z"/>
	</g>
	<g>
		<path class="st0" d="M13.5,20h-10C3.2,20,3,19.8,3,19.5S3.2,19,3.5,19h10c0.3,0,0.5,0.2,0.5,0.5S13.8,20,13.5,20z"/>
	</g>
</g>
</svg>
