<?xml version="1.0" encoding="utf-8"?>
<!-- Generator: Adobe Illustrator 23.0.1, SVG Export Plug-In . SVG Version: 6.00 Build 0)  -->
<svg version="1.1" id="Capa_1" xmlns="http://www.w3.org/2000/svg" xmlns:xlink="http://www.w3.org/1999/xlink" x="0px" y="0px"
	 viewBox="0 0 13 21" style="enable-background:new 0 0 13 21;" xml:space="preserve">
<style type="text/css">
	.st0{fill:#3A79F0;}
</style>
<g>
	<g>
		<path class="st0" d="M6.5,9C4,9,2,7,2,4.5S4,0,6.5,0S11,2,11,4.5S9,9,6.5,9z M6.5,1C4.6,1,3,2.6,3,4.5S4.6,8,6.5,8S10,6.4,10,4.5
			S8.4,1,6.5,1z"/>
	</g>
	<g>
		<path class="st0" d="M12,21H1c-0.6,0-1-0.5-1-1v-3.5C0,12.9,2.9,10,6.5,10s6.5,2.9,6.5,6.5V20C13,20.5,12.5,21,12,21z M6.5,11
			c-3,0-5.5,2.5-5.5,5.5V20l11,0c0,0,0,0,0,0v-3.5C12,13.5,9.5,11,6.5,11z"/>
	</g>
</g>
</svg>
