<?xml version="1.0" encoding="utf-8"?>
<!-- Generator: Adobe Illustrator 23.0.3, SVG Export Plug-In . SVG Version: 6.00 Build 0)  -->
<svg version="1.1" id="Capa_1" xmlns="http://www.w3.org/2000/svg" xmlns:xlink="http://www.w3.org/1999/xlink" x="0px" y="0px"
	 viewBox="0 0 29.9 45.5" style="enable-background:new 0 0 29.9 45.5;" xml:space="preserve">
<style type="text/css">
	.st0{fill:#FFFFFF;}
	.st1{fill:#3A79F0;}
	.st2{opacity:0.35;}
</style>
<g>
	<g>
		<path class="st0" d="M11.3,44.8H3.1v-8.1c0-2.2,1.8-4,4-4h0.1c2.2,0,4,1.8,4,4V44.8z"/>
		<path class="st1" d="M12,45.5H2.4v-8.8c0-2.6,2.2-4.6,4.8-4.6s4.8,2.1,4.8,4.6V45.5z M3.9,44.1h6.7v-7.4c0-1.8-1.5-3.3-3.4-3.3
			s-3.4,1.5-3.4,3.3V44.1z"/>
	</g>
	<g>
		<path class="st0" d="M7.5,45.5V35.1c0-2.6,2.1-4.8,4.8-4.8H21c2.6,0,4.8,2.1,4.8,4.8v10.4H7.5z"/>
		<path class="st1" d="M26.5,45.5H6.7V35.1c0-3,2.5-5.5,5.5-5.5H21c3,0,5.5,2.5,5.5,5.5V45.5z M8.2,44.1H25v-9c0-2.2-1.8-4-4-4h-8.8
			c-2.2,0-4,1.8-4,4V44.1z"/>
	</g>
	<g>
		<path class="st0" d="M15.9,32.3L15.9,32.3c-1.5,0-2.6-1.2-2.6-2.6v-4.8c0-1.5,1.2-2.6,2.6-2.6h0c1.5,0,2.6,1.2,2.6,2.6v4.8
			C18.5,31.1,17.4,32.3,15.9,32.3z"/>
		<path class="st1" d="M15.9,33c-1.9,0-3.4-1.5-3.4-3.4v-4.8c0-1.9,1.5-3.4,3.4-3.4s3.4,1.5,3.4,3.4v4.8C19.3,31.5,17.7,33,15.9,33z
			 M15.9,22.9c-1.1,0-1.9,0.9-1.9,1.9v4.8c0,1.1,0.9,1.9,1.9,1.9s1.9-0.9,1.9-1.9v-4.8C17.8,23.7,17,22.9,15.9,22.9z"/>
	</g>
	<g>
		<path class="st0" d="M15.9,25.8L15.9,25.8c-4.5,0-8.2-3.7-8.2-8.2V8.9c0-4.5,3.7-8.2,8.2-8.2h0c4.5,0,8.2,3.7,8.2,8.2v8.7
			C24.1,22.1,20.4,25.8,15.9,25.8z"/>
		<path class="st1" d="M15.9,26.5c-4.9,0-8.9-4-8.9-8.9V8.9C7,4,11,0,15.9,0s8.9,4,8.9,8.9v8.7C24.8,22.5,20.8,26.5,15.9,26.5z
			 M15.9,1.4c-4.1,0-7.5,3.3-7.5,7.5v8.7c0,4.1,3.3,7.5,7.5,7.5s7.5-3.3,7.5-7.5V8.9C23.4,4.8,20,1.4,15.9,1.4z"/>
	</g>
	<g>
		<path class="st1" d="M0,4.3h19c2.9,0,5.3,2.4,5.3,5.3v0h-19C2.4,9.6,0,7.3,0,4.3L0,4.3z"/>
	</g>
	<g>
		<path class="st1" d="M16.9,0.7h-1.9c-4,0-7.2,3.2-7.2,7.2v0h16.4v0C24.1,4,20.8,0.7,16.9,0.7z"/>
	</g>
	<g>
		<path class="st0" d="M29.1,44.8h-8.2v-8.4c0-2.3,1.8-4.1,4.1-4.1h0c2.3,0,4.1,1.8,4.1,4.1V44.8z"/>
		<path class="st1" d="M29.9,45.5h-9.6v-9.1c0-2.7,2.2-4.8,4.8-4.8s4.8,2.2,4.8,4.8V45.5z M21.7,44.1h6.7v-7.7
			c0-1.9-1.5-3.4-3.4-3.4c-1.9,0-3.4,1.5-3.4,3.4V44.1z"/>
	</g>
	<g class="st2">
		<polygon class="st1" points="19,27 13.3,30 13.2,25.3 18.5,25.3 		"/>
	</g>
	<g class="st2">
		<polygon class="st1" points="7.7,14.2 19,9.6 7.7,9.6 		"/>
	</g>
	<g class="st2">
		<path class="st1" d="M8,32.8c0,0-0.6-0.1-0.6,5.7H3.1C3.1,38.5,2.8,32.4,8,32.8z"/>
	</g>
	<g>
		<line class="st0" x1="16.9" y1="13.2" x2="16.9" y2="15.2"/>
		<path class="st1" d="M16.9,15.9c-0.4,0-0.7-0.3-0.7-0.7v-1.9c0-0.4,0.3-0.7,0.7-0.7s0.7,0.3,0.7,0.7v1.9
			C17.6,15.6,17.3,15.9,16.9,15.9z"/>
	</g>
	<g>
		<line class="st0" x1="11.8" y1="13.5" x2="11.8" y2="15.4"/>
		<path class="st1" d="M11.8,16.1c-0.4,0-0.7-0.3-0.7-0.7v-1.9c0-0.4,0.3-0.7,0.7-0.7s0.7,0.3,0.7,0.7v1.9
			C12.5,15.8,12.2,16.1,11.8,16.1z"/>
	</g>
	<g>
		<polyline class="st0" points="14.2,15.9 13.7,17.3 14.7,17.3 		"/>
		<path class="st1" d="M14.7,17.6h-1c-0.1,0-0.1,0-0.2-0.1c0-0.1-0.1-0.1,0-0.2l0.5-1.4c0-0.1,0.2-0.2,0.3-0.2
			c0.1,0,0.2,0.2,0.2,0.3l-0.4,1.1h0.6c0.1,0,0.2,0.1,0.2,0.2C14.9,17.5,14.8,17.6,14.7,17.6z"/>
	</g>
	<g>
		<path class="st0" d="M13.2,20.2c0,0,2.9,1,4.8-1"/>
		<path class="st1" d="M14.9,20.9c-1,0-1.8-0.2-1.8-0.3c-0.3-0.1-0.4-0.4-0.3-0.6c0.1-0.3,0.4-0.4,0.6-0.3c0,0,2.6,0.8,4.3-0.8
			c0.2-0.2,0.5-0.2,0.7,0c0.2,0.2,0.2,0.5,0,0.7C17.3,20.7,16,20.9,14.9,20.9z"/>
	</g>
	<g>
		<path class="st0" d="M23.8,15.9h-0.5c-1.6,0-2.8-1.3-2.8-2.8V9.6h3.4V15.9z"/>
		<path class="st1" d="M24.6,16.6h-1.2c-2,0-3.6-1.6-3.6-3.6V8.9h4.8V16.6z M21.2,10.4V13c0,1.1,0.8,2,1.9,2.1v-4.8H21.2z"/>
	</g>
	<g class="st2">
		<polygon class="st1" points="20.7,39.7 20.7,44.1 21.4,44.8 21.4,45.5 12.2,45.5 14.4,45.5 		"/>
	</g>
</g>
</svg>
