<?xml version="1.0" encoding="utf-8"?>
<!-- Generator: Adobe Illustrator 23.1.0, SVG Export Plug-In . SVG Version: 6.00 Build 0)  -->
<svg version="1.1" id="Capa_1" xmlns="http://www.w3.org/2000/svg" xmlns:xlink="http://www.w3.org/1999/xlink" x="0px" y="0px"
	 viewBox="0 0 24 29" style="enable-background:new 0 0 24 29;" xml:space="preserve">
<style type="text/css">
	.st0{fill:#3A79F0;}
	.st1{opacity:0.35;}
</style>
<g>
	<g>
		<path class="st0" d="M21.3,29H2.7C1.2,29,0,27.8,0,26.3V8.5c0-2.1,1.1-4,3-4.9c5.5-2.9,11.5-2.9,17.8,0.1l0,0c2,0.9,3.2,2.9,3.2,5
			v17.6C24,27.8,22.8,29,21.3,29z M11.5,3.4c-2.6,0-5.1,0.7-7.6,2C2.7,6,2,7.2,2,8.5v17.8C2,26.7,2.3,27,2.7,27h18.6
			c0.4,0,0.7-0.3,0.7-0.7V8.7c0-1.4-0.8-2.6-2.1-3.2l0,0C17,4.1,14.2,3.4,11.5,3.4z"/>
	</g>
	<g>
		<path class="st0" d="M17,29H7V18.5C7,17.1,8.1,16,9.5,16h5c1.4,0,2.5,1.1,2.5,2.5V29z M9,27h6v-8.5c0-0.3-0.2-0.5-0.5-0.5h-5
			C9.2,18,9,18.2,9,18.5V27z"/>
	</g>
	<g>
		<g>
			<path class="st0" d="M10,13H6c-0.6,0-1-0.4-1-1s0.4-1,1-1h4c0.6,0,1,0.4,1,1S10.6,13,10,13z"/>
		</g>
		<g>
			<path class="st0" d="M18,13h-4c-0.6,0-1-0.4-1-1s0.4-1,1-1h4c0.6,0,1,0.4,1,1S18.6,13,18,13z"/>
		</g>
	</g>
	<g>
		<polygon class="st0" points="20.5,5 18.5,5 18.5,2 13.5,2 13.5,0 20.5,0 		"/>
	</g>
	<g class="st1">
		<polygon class="st0" points="15.6,17.6 7.5,28 15.5,28 		"/>
	</g>
</g>
</svg>
